<svg xmlns="http://www.w3.org/2000/svg" viewBox="0 0 192 192"><rect x="3" y="3" width="186" height="186" rx="38" fill="#071812" stroke="#315144" stroke-width="6"/><circle class="brand-atlas-ring" cx="96" cy="96" r="75" fill="none" stroke="#315144" stroke-width="2"/><path class="brand-atlas-arc" d="M49 35A75 75 0 0 1 155 40" fill="none" stroke="#d8b45f" stroke-width="2" stroke-linecap="round" stroke-dasharray="2 10"/><path class="brand-atlas-arc" d="M43 156A75 75 0 0 0 156 150" fill="none" stroke="#7fb89c" stroke-width="2" stroke-linecap="round" stroke-dasharray="2 10"/><path class="brand-route brand-route-gold" d="M30 52C64 52 64 86 101 86" fill="none" stroke="#d8b45f" stroke-width="6" stroke-linecap="round"/><path class="brand-route brand-route-ivory" d="M25 96H101" fill="none" stroke="#f4f1e8" stroke-width="6" stroke-linecap="round"/><path class="brand-route brand-route-green" d="M30 140C64 140 64 106 101 106" fill="none" stroke="#7fb89c" stroke-width="6" stroke-linecap="round"/><path class="brand-route brand-route-gold" d="M119 96C144 96 151 73 169 66" fill="none" stroke="#d8b45f" stroke-width="6" stroke-linecap="round"/><path class="brand-route brand-route-green" d="M119 96C144 96 151 119 169 126" fill="none" stroke="#7fb89c" stroke-width="4" stroke-linecap="round" opacity=".8"/><circle class="brand-node brand-node-gold" cx="30" cy="52" r="8" fill="#d8b45f"/><circle class="brand-node brand-node-ivory" cx="25" cy="96" r="8" fill="#f4f1e8"/><circle class="brand-node brand-node-green" cx="30" cy="140" r="8" fill="#7fb89c"/><circle class="brand-node brand-node-gold" cx="169" cy="66" r="8" fill="#d8b45f"/><circle class="brand-node brand-node-green" cx="169" cy="126" r="8" fill="#7fb89c"/><path class="brand-gate" d="m110 76 20 20-20 20-20-20 20-20Z" fill="#d8b45f" stroke="#071812" stroke-width="5" stroke-linejoin="round"/><path class="brand-gate-core" d="m110 88 8 8-8 8-8-8 8-8Z" fill="#071812"/></svg>